/* XPM */
static char *result[] = {
/* columns rows colors chars-per-pixel */
"24 24 8 1 ",
"  c #434A5F",
". c #DD442C",
"X c #FC683B",
"o c #D0B8AD",
"O c #DCE1E7",
"+ c #F8F2EF",
"@ c white",
"# c None",
/* pixels */
"########################",
"########################",
"########################",
"########################",
"########        ########",
"######            ######",
"#####    XXXXXX    #####",
"####   XXXXX@XXXX   ####",
"###   XXXXXXXX@@XX   ###",
"###  XX@XXXXXX@@XXX  ###",
"##   XXXXXXXXXXXXXX   ##",
"##  ..XXXXXXXXXXXX..  ##",
"##  ................  ##",
"##  ...OO.O.......O.  ##",
"##  ...OO...........  ##",
"##   ..............   ##",
"###     o  o  oo     ###",
"####    +  +  ++    ####",
"######  ++++++++  ######",
"######  ++ooo+++  ######",
"######  ++++++++  ######",
"######   oo  oo   ######",
"#######  ++  ++  #######",
"########  +  +  ########"
};
