/* XPM */
static char *result[] = {
/* columns rows colors chars-per-pixel */
"18 18 4 1 ",
"  c #70768C",
". c #63697B",
"X c #DCE1E7",
"o c #959AB1",
/* pixels */
"oooooooooooooooooo",
"oooooooooooooooooo",
"oooooXXooooooooooo",
"oooooXXoooooooo.oo",
"ooooo  ooooooooooo",
"ooo.oooooooooooooo",
"oooooooooooooooooo",
"oooooooooooooooooo",
"oooooooooooooooooo",
"ooooo..oooo  ooooo",
"oooXo..ooooXXooooo",
"oooooooooooXXooooo",
"oo.ooooooooooooooo",
"oooooooooooooooooo",
"oooo.ooooooooooooo",
"oooooooooooooooooo",
"oooooooooooooooooo",
"oooooooooooooooooo"
};
