/* XPM */
static char *result[] = {
/* columns rows colors chars-per-pixel */
"32 32 13 1 ",
"  c #604800",
". c #174159",
"X c #CB9500",
"o c #F8BB0B",
"O c #F7D76E",
"+ c #27739B",
"@ c #5AAED8",
"# c #AAAAAA",
"$ c #ADD6EC",
"% c gray87",
"& c #D5EBF4",
"* c white",
"= c None",
/* pixels */
"================================",
"=====&=========..=========&=====",
"====&*&======..##%%##=..========",
"=====&=====..##%%##%..$$.=======",
"=========..#**%##%..$$@@.===&===",
"=======..#**%##%..$$@@@@.==&*&==",
"=====..#**%%%*..$$@@@@@@.===&===",
"===..#%%%##%..$$@@@@@@o@@.======",
"==.@.....%..$$@@@@@@Ooo@@.======",
"==.+@@@@@.@$@@@@@@OOXXXo@.======",
"==.++++++.+@@@@@oOXX++Xo@.======",
"==.++++++.++@@ooXX+@@+Xo@@.=====",
"=== X++@+.+++ooX+@@@@+XO@@.=====",
"===.+XoOXX.++Xo@@@@@@@+XO@.=====",
"===.++++++.++Xo+@@@@@@+XO@.=====",
"=== X+++++.++Xo++@@@@@+Xo@@.====",
"====.XXoOX.+++Xo++@@@@+Xo@@.====",
"====.+++@++.++XO++++@@@+Xo@.====",
"====.++++++.++XO++++++@+Xo@.====",
"====.++++++.++Xo++++++++oo@@.===",
"=====.+++++.+++Xo+++++OoXX@@.===",
"=====.++++++.++Xo+++OOXX+++@.===",
"=&===.++++++.++Xo+oOXX++++++.===",
"=====.++++++.++XooXX++++++..====",
"======.+++++.+++XX++++++..====&=",
"====== X++@++.++++++++..========",
"===&==.+XXOoX.++++++..==========",
"==&*&=.+++@++.++++..====&=======",
"===&===.+++++.++..=====&*&======",
"=======+.....+..========&=======",
"===========================&====",
"================================"
};
