/* XPM */
static char *result[] = {
/* columns rows colors chars-per-pixel */
"17 18 8 1 ",
"  c #323821",
". c #C43F31",
"X c #88A043",
"o c #9FBC4D",
"O c #D8B78F",
"+ c #FFD7A8",
"@ c white",
"# c None",
/* pixels */
"#################",
"#####         ###",
"##   XXooooooo ##",
"#  XXXXXooXXXo ##",
" . X@ XXo ooo  ##",
" . X@ @Xoooooo ##",
"   X@@@Xoooooo ##",
"# . XXXooooooo ##",
"# . XXXXoooo   ##",
"#    XXXXo  #####",
"#### XO++++ #####",
"##### XO++++ ####",
"###  oXO++++  ###",
"### oXXXoOOoo ###",
"###   Xoo oXX ###",
"##### Xo     ####",
"##### X #########",
"#####  ##########"
};
